<svg width="21" height="26" viewBox="0 0 21 26" fill="none" xmlns="http://www.w3.org/2000/svg">
<path d="M4.74428 20.5H20.279C20.2753 21.6625 20.2518 22.5288 20.1394 23.2125C20.0035 24.0288 19.7564 24.46 19.3784 24.7675C18.9991 25.075 18.4678 25.2763 17.4634 25.385C16.4293 25.4975 15.0592 25.5 13.0948 25.5H7.62168C5.65729 25.5 4.28592 25.4988 3.25307 25.385C2.24864 25.2763 1.71739 25.075 1.3381 24.7675C0.960052 24.46 0.712958 24.0287 0.577057 23.2137C0.567091 23.151 0.55803 23.088 0.549877 23.025C0.500459 22.6613 0.475749 22.4787 0.631418 22.05C0.788322 21.62 0.855037 21.5538 0.990938 21.4188C1.43222 20.9955 1.98242 20.7065 2.57851 20.585C2.9368 20.5075 3.40627 20.5 4.74428 20.5Z" fill="white"/>
<path opacity="0.5" d="M1.4099 1.41631C1.78795 1.03131 2.31673 0.781311 3.31746 0.643811C4.34784 0.502561 5.71179 0.500061 7.66877 0.500061H13.1221C15.0791 0.500061 16.443 0.502561 17.4734 0.643811C18.4741 0.781311 19.0029 1.03131 19.381 1.41631C19.7578 1.80131 20.0037 2.34131 20.1383 3.36256C20.2767 4.41256 20.2792 5.80631 20.2792 7.80256V20.5001H4.74442C3.40518 20.5001 2.93817 20.5076 2.57865 20.5851C1.94486 20.7226 1.39261 21.0188 0.991079 21.4188C0.855178 21.5538 0.788463 21.6201 0.631559 22.0501C0.556676 22.2325 0.516036 22.4275 0.511719 22.6251V7.80256C0.511719 5.80631 0.514189 4.41381 0.652562 3.36256C0.787227 2.34256 1.03309 1.80131 1.4099 1.41631Z" fill="white"/>
<path d="M4.52686 6.75C4.52686 6.50136 4.62448 6.2629 4.79825 6.08709C4.97202 5.91127 5.2077 5.8125 5.45345 5.8125H15.3372C15.5829 5.8125 15.8186 5.91127 15.9924 6.08709C16.1662 6.2629 16.2638 6.50136 16.2638 6.75C16.2638 6.99864 16.1662 7.2371 15.9924 7.41291C15.8186 7.58873 15.5829 7.6875 15.3372 7.6875H5.45345C5.2077 7.6875 4.97202 7.58873 4.79825 7.41291C4.62448 7.2371 4.52686 6.99864 4.52686 6.75ZM5.45345 10.1875C5.2077 10.1875 4.97202 10.2863 4.79825 10.4621C4.62448 10.6379 4.52686 10.8764 4.52686 11.125C4.52686 11.3736 4.62448 11.6121 4.79825 11.7879C4.97202 11.9637 5.2077 12.0625 5.45345 12.0625H11.6308C11.8765 12.0625 12.1122 11.9637 12.286 11.7879C12.4598 11.6121 12.5574 11.3736 12.5574 11.125C12.5574 10.8764 12.4598 10.6379 12.286 10.4621C12.1122 10.2863 11.8765 10.1875 11.6308 10.1875H5.45345Z" fill="white"/>
</svg>
