<svg width="20" height="21" viewBox="0 0 20 21" fill="none" xmlns="http://www.w3.org/2000/svg">
<path opacity="0.5" d="M10 20.5477C15.5228 20.5477 20 16.0891 20 10.5892C20 5.08928 15.5228 0.630707 10 0.630707C4.47715 0.630707 0 5.08928 0 10.5892C0 16.0891 4.47715 20.5477 10 20.5477Z" fill="#0057FF"/>
<path d="M6.57482 8.04679C6.38782 5.97143 4.78082 4.03749 3.99982 3.33044L3.56982 2.96197C5.36942 1.45304 7.64728 0.627166 9.99982 0.630687C12.2138 0.630687 14.2598 1.3477 15.9158 2.55865C16.1498 3.2667 15.7038 4.74554 15.2358 5.4526C15.0658 5.70853 14.6818 6.0272 14.2598 6.32895C13.3098 7.00911 12.1098 7.34471 11.4998 8.59749C11.3474 8.9129 11.3178 9.27341 11.4168 9.60928C11.4768 9.82836 11.5168 10.0664 11.5168 10.2984C11.5188 11.0503 10.7548 11.593 9.99982 11.585C8.03582 11.5641 6.74982 9.9877 6.57482 8.04679ZM11.4368 16.8392C12.4248 14.9849 15.7178 14.9849 15.7178 14.9849C19.1498 14.949 19.6138 12.8737 19.9238 11.825C19.6504 13.9971 18.6664 16.0191 17.1237 17.5786C15.581 19.1381 13.5656 20.1483 11.3888 20.4531C11.0658 19.7759 10.6838 18.2523 11.4368 16.8392Z" fill="#0057FF"/>
</svg>
